<?xml version="1.0" encoding="utf-8"?>
<?xml-stylesheet type="text/xsl" href="rss1.xsl"?>
<rss version="2.0" xmlns:atom="http://www.w3.org/2005/Atom" xmlns:content="http://purl.org/rss/1.0/modules/content/" xmlns:dc="http://purl.org/dc/elements/1.1/" xmlns:media="http://search.yahoo.com/mrss/">
<channel>
 <title>Getty</title>
 <link>http://www.gettyimg.com/</link>
 <atom:link href="http://www.gettyimg.com/" rel="self" type="application/rss+xml" />

 
                <item>
                <title><![CDATA[【MASTER &amp; MASTER RIP】MASTER - 우기(YUQI) - FREAK 응원법 [Master 4K]]]></title>
                <link><![CDATA[https://sharemania.us/threads/%EC%9A%B0%EA%B8%B0-yuqi-freak-%EC%9D%91%EC%9B%90%EB%B2%95-master-4k.242896/]]></link>
                <description><![CDATA[<article>
<blockquote class="messageText SelectQuoteContainer ugc baseHtml">
<div style="text-align: center"><img src="https://i.ibb.co/qjGfPsH/YUQI-Freak-VTM.gif" class="bbCodeImage LbImage" alt="[​IMG]" data-url="https://i.ibb.co/qjGfPsH/YUQI-Freak-VTM.gif" style=""><br>
​</div>
<div class="ToggleTriggerAnchor bbCodeSpoilerContainer">
<button type="button" class="button bbCodeSpoilerButton ToggleTrigger Tooltip JsOnly" data-target="> .SpoilerTarget"><span>Spoiler: <span class="SpoilerTitle">MASTER</span></span></button>
<div class="SpoilerTarget bbCodeSpoilerText">
<div class="bbCodeBlock bbCodeCode">
<div class="type">Code:</div>
<pre>General
Complete name                            : YUQI - Freak.mp4
Format                                   : MPEG-4
Format profile                           : Base Media / Version 2
Codec ID                                 : mp42 (mp42/mp41)
File size                                : 5.14 GiB
Duration                                 : 3 min 5 s
Overall bit rate mode                    : Variable
Overall bit rate                         : 238 Mb/s
Frame rate                               : 23.976 FPS
Encoded date                             : 2024-04-22 09:14:02 UTC
Tagged date                              : 2024-04-22 09:16:32 UTC
TIM                                      : 00:00:00:00
TSC                                      : 24000
TSZ                                      : 1001

Video
ID                                       : 1
Format                                   : AVC
Format/Info                              : Advanced Video Codec
Format profile                           : Main@L5.1
Format settings                          : CABAC / 4 Ref Frames
Format settings, CABAC                   : Yes
Format settings, Reference frames        : 4 frames
Codec ID                                 : avc1
Codec ID/Info                            : Advanced Video Coding
Duration                                 : 3 min 5 s
Bit rate                                 : 237 Mb/s
Width                                    : 3 840 pixels
Height                                   : 2 160 pixels
Display aspect ratio                     : 16:9
Frame rate mode                          : Constant
Frame rate                               : 23.976 (24000/1001) FPS
Color space                              : YUV
Chroma subsampling                       : 4:2:0
Bit depth                                : 8 bits
Scan type                                : Progressive
Bits/(Pixel*Frame)                       : 1.194
Stream size                              : 5.13 GiB (100%)
Language                                 : English
Encoded date                             : 2024-04-22 09:14:02 UTC
Tagged date                              : 2024-04-22 09:14:02 UTC
Color range                              : Limited
Color primaries                          : BT.709
Transfer characteristics                 : BT.709
Matrix coefficients                      : BT.709
Codec configuration box                  : avcC

Audio
ID                                       : 2
Format                                   : AAC LC
Format/Info                              : Advanced Audio Codec Low Complexity
Codec ID                                 : 2 / 40 / mp4a-40-2
Duration                                 : 3 min 5 s
Source duration                          : 3 min 5 s
Bit rate mode                            : Variable
Bit rate                                 : 317 kb/s
Maximum bit rate                         : 373 kb/s
Channel(s)                               : 2 channels
Channel layout                           : L R
Sampling rate                            : 48.0 kHz
Frame rate                               : 46.875 FPS (1024 SPF)
Compression mode                         : Lossy
Stream size                              : 7.02 MiB (0%)
Source stream size                       : 7.02 MiB (0%)
Language                                 : English
Encoded date                             : 2024-04-22 09:14:02 UTC
Tagged date                              : 2024-04-22 09:14:02 UTC

</pre>
</div><div style="text-align: center">​</div></div>
</div><div style="text-align: center">
<div class="bbCodeBlock bbCodeVfcHH HiddenContent">
<div class="attribution type">Hidden Content:</div>
<blockquote>You must reply before you can see the hidden data contained here.</blockquote>
</div><img src="https://i.ibb.co/frYdjxL/gifit-1713888258102.gif" class="bbCodeImage LbImage" alt="[​IMG]" data-url="https://i.ibb.co/frYdjxL/gifit-1713888258102.gif" style="">​</div>
<div class="messageTextEndMarker">&nbsp;</div>
</blockquote>
</article>]]></description>
                <author><![CDATA[fstambuk]]></author>
                </item>

                
                <item>
                <title><![CDATA[【Apple Music】WEB-RiP - The Kid LAROI - BLEED [Apple HD Music Video]]]></title>
                <link><![CDATA[https://sharemania.us/threads/the-kid-laroi-bleed-apple-hd-music-video.242899/]]></link>
                <description><![CDATA[<article>
<blockquote class="messageText SelectQuoteContainer ugc baseHtml">
thank U
<div class="messageTextEndMarker">&nbsp;</div>
</blockquote>
</article>]]></description>
                <author><![CDATA[Mu$iC @$YLUM]]></author>
                </item>

                
                <item>
                <title><![CDATA[【Albums (lossless)】FLAC - Disturbed - The Sickness (2000) (Explicit) [Qobuz Hi-Res 24bits/96.0kHz]]]></title>
                <link><![CDATA[https://sharemania.us/threads/disturbed-the-sickness-2000-explicit-qobuz-hi-res-24bits-96-0khz.242900/]]></link>
                <description><![CDATA[<article>
<blockquote class="messageText SelectQuoteContainer ugc baseHtml">
<span style="font-size: 22px"><b>The Kid LAROI - BLEED [Apple HD Music Video]</b></span><br>
<br>
<img src="https://imgur.com/glQ2CUI.jpg" class="bbCodeImage LbImage" alt="[​IMG]" data-url="https://imgur.com/glQ2CUI.jpg" style=""><br>
<br>
<div class="bbCodeBlock bbCodeCode">
<div class="type">Code:</div>
<pre>General
Format                         : MPEG-4
Codec ID                       : M4V  (isom/iso4/M4V /mp42)
File size                      : 319 MiB
Duration                       : 4 min 17 s
Overall bit rate mode          : Variable
Overall bit rate               : 10.4 Mb/s
Movie name                     : BLEED
Performer                      : The Kid LAROI
Genre                          : Pop
ContentType                    : Music Video
Recorded date                  : UTC 2023-11-05 07:00:00
Encoded date                   : UTC 2024-03-25 20:11:37
Tagged date                    : UTC 2024-03-25 20:11:37
Copyright                      : ℗ (C) 2023 Columbia Records, a Division of Sony Music Entertainment
Cover                          : Yes
Rating                         : None
GenreID                        : 1614
AppleStoreCountry              : Canada
AlbumTitleID                   : 1435848034
AppleStoreCatalogID            : 1714526134

Video
ID                             : 2
Format                         : AVC
Format/Info                    : Advanced Video Codec
Format profile                 : High@L4
Format settings                : CABAC / 4 Ref Frames
Format settings, CABAC         : Yes
Format settings, Reference fra : 4 frames
Codec ID                       : avc1
Codec ID/Info                  : Advanced Video Coding
Duration                       : 4 min 17 s
Duration_FirstFrame            : 42 ms
Bit rate                       : 10.1 Mb/s
Maximum bit rate               : 28.0 Mb/s
Width                          : 1 620 pixels
Height                         : 1 080 pixels
Display aspect ratio           : 3:2
Frame rate mode                : Constant
Frame rate                     : 24.000 FPS
Color space                    : YUV
Chroma subsampling             : 4:2:0
Bit depth                      : 8 bits
Scan type                      : Progressive
Bits/(Pixel*Frame)             : 0.241
Stream size                    : 311 MiB (97%)
Title                          : Core Media Video
Language                       : English
Encoded date                   : UTC 2024-03-05 19:16:08
Tagged date                    : UTC 2024-03-25 20:11:47
Color range                    : Limited
Color primaries                : BT.709
Transfer characteristics       : BT.709
Matrix coefficients            : BT.709
Codec configuration box        : avcC

Audio
ID                             : 1
Format                         : AAC LC
Format/Info                    : Advanced Audio Codec Low Complexity
Codec ID                       : mp4a-40-2
Duration                       : 4 min 17 s
Duration_LastFrame             : -15 ms
Bit rate mode                  : Variable
Bit rate                       : 251 kb/s
Maximum bit rate               : 366 kb/s
Channel(s)                     : 2 channels
Channel layout                 : L R
Sampling rate                  : 48.0 kHz
Frame rate                     : 46.875 FPS (1024 SPF)
Compression mode               : Lossy
Stream size                    : 7.72 MiB (2%)
Title                          : Core Media Audio
Encoded date                   : UTC 2024-03-05 19:16:03
Tagged date                    : UTC 2024-03-25 20:11:47

Text
ID                             : 3
Format                         : EIA-608
Codec ID                       : c608
Duration                       : 3 min 9 s
Bit rate mode                  : Variable
Bit rate                       : 125 b/s
Maximum bit rate               : 976 b/s
Frame rate                     : 0.349 FPS
Stream size                    : 2.89 KiB (0%)
Title                          : Core Media Closed Caption
Language                       : English
Forced                         : No
Encoded date                   : UTC 2024-03-05 19:16:08
Tagged date                    : UTC 2024-03-25 20:11:47
</pre>
</div>
<div class="bbCodeBlock bbCodeVfcHH HiddenContent">
<div class="attribution type">Hidden Content:</div>
<blockquote>You must reply before you can see the hidden data contained here.</blockquote>
</div>
<div class="messageTextEndMarker">&nbsp;</div>
</blockquote>
</article>]]></description>
                <author><![CDATA[SkyBlur]]></author>
                </item>

                
                <item>
                <title><![CDATA[【Requests】[REQ VID] - Olivia Dean Coachella]]></title>
                <link><![CDATA[https://sharemania.us/threads/olivia-dean-coachella.242898/]]></link>
                <description><![CDATA[<article>
<blockquote class="messageText SelectQuoteContainer ugc baseHtml">
<img src="https://static.qobuz.com/images/covers/23/46/0093624924623_600.jpg" class="bbCodeImage LbImage" alt="[​IMG]" data-url="https://static.qobuz.com/images/covers/23/46/0093624924623_600.jpg" style=""><br>
<span style="font-size: 22px"><b>The Sickness</b></span><br>
<span style="font-size: 18px"><b>Disturbed</b><br>
</span><br>
<a href="https://www.qobuz.com/nz-en/album/the-sickness-disturbed/0093624924623" target="_blank" class="externalLink" rel="nofollow">Disturbed - The Sickness</a><br>
<br>
Tracklist:<br>
01 Voices<br>
02 The Game <br>
03 Stupify<br>
04 Down with the Sickness <br>
05 Violence Fetish<br>
06 Fear <br>
07 Numb<br>
08 Want<br>
09 Conflict<br>
10 Shout 2000<br>
11 Droppin' Plates<br>
12 Meaning of Life<br>
<br>
<br>
1 disc(s) - 12 track(s)<br>
Total length: 00:47:44<br>
<br>
<br>
<br>
<br>
<i>LINK:</i><br>
<div class="bbCodeBlock bbCodeVfcHH HiddenContent">
<div class="attribution type">Hidden Content:</div>
<blockquote>You must reply before you can see the hidden data contained here.</blockquote>
</div>
<div class="bbCodeBlock bbCodeVfcHH HiddenContent">
<div class="attribution type">Hidden Content:</div>
<blockquote>You must reply before you can see the hidden data contained here.</blockquote>
</div>
<div class="messageTextEndMarker">&nbsp;</div>
</blockquote>
</article>]]></description>
                <author><![CDATA[detroit1]]></author>
                </item>

                
                <item>
                <title><![CDATA[【Requests】[REQ CAP] - Pop! Xanadu and Northern Dance Society Xanadu]]></title>
                <link><![CDATA[https://sharemania.us/threads/pop-xanadu-and-northern-dance-society-xanadu.242897/]]></link>
                <description><![CDATA[<article>
<blockquote class="messageText SelectQuoteContainer ugc baseHtml">
the links that had all of the performances are not valid now<br>
<br>
hope someone can post her performances from Coachella
<div class="messageTextEndMarker">&nbsp;</div>
</blockquote>
</article>]]></description>
                <author><![CDATA[tajd]]></author>
                </item>

                </channel></rss>